<?xml version="1.0" encoding="utf-8"?>
<svg version="1.1" xmlns:xlink="http://www.w3.org/1999/xlink" width="12px" height="12px" viewBox="476 242  12 12" xmlns="http://www.w3.org/2000/svg">
  <path d="M 482 242  C 485.36 242  488 244.64  488 248  C 488 251.36  485.36 254  482 254  C 478.64 254  476 251.36  476 248  C 476 244.64  478.64 242  482 242  Z " fill-rule="nonzero" fill="#ffffff" stroke="none" />
  <path d="M 482 242.5  C 485.08 242.5  487.5 244.92  487.5 248  C 487.5 251.08  485.08 253.5  482 253.5  C 478.92 253.5  476.5 251.08  476.5 248  C 476.5 244.92  478.92 242.5  482 242.5  Z " stroke-width="1" stroke="#797979" fill="none" />
  <path d="M 482 251  C 480.32 251  479 249.68  479 248  C 479 246.32  480.32 245  482 245  C 483.68 245  485 246.32  485 248  C 485 249.68  483.68 251  482 251  " fill-rule="nonzero" fill="#797979" stroke="none" />
</svg>