<?xml version="1.0" encoding="utf-8"?>
<svg version="1.1" xmlns:xlink="http://www.w3.org/1999/xlink" width="59px" height="56px" xmlns="http://www.w3.org/2000/svg">
  <g transform="matrix(1 0 0 1 -601 -568 )">
    <path d="M 630.5 568  C 647.02 568  660 580.32  660 596  C 660 611.68  647.02 624  630.5 624  C 613.98 624  601 611.68  601 596  C 601 580.32  613.98 568  630.5 568  Z " fill-rule="nonzero" fill="#ffffff" stroke="none" />
    <path d="M 630.5 568.5  C 646.74 568.5  659.5 580.6  659.5 596  C 659.5 611.4  646.74 623.5  630.5 623.5  C 614.26 623.5  601.5 611.4  601.5 596  C 601.5 580.6  614.26 568.5  630.5 568.5  Z " stroke-width="1" stroke="#797979" fill="none" />
  </g>
</svg>