<?xml version="1.0" encoding="utf-8"?>
<svg version="1.1" xmlns:xlink="http://www.w3.org/1999/xlink" width="300px" height="170px" xmlns="http://www.w3.org/2000/svg">
  <g transform="matrix(1 0 0 1 -304 -107 )">
    <path d="M 304 107  L 604 107  L 604 277  L 304 277  L 304 107  " fill-rule="nonzero" fill="#cccccc" stroke="none" />
    <path d="M 316 119  L 592 119  L 592 265  L 316 265  L 316 119  " fill-rule="nonzero" fill="#ffffff" stroke="none" />
    <path d="M 472.75 158  C 465.61 158  460 152.39  460 145.25  C 460 138.11  465.61 132.5  472.75 132.5  C 479.89 132.5  485.5 138.11  485.5 145.25  C 485.5 152.39  479.89 158  472.75 158  " fill-rule="nonzero" fill="#cccccc" stroke="none" />
    <path d="M 321 261  L 321 185.65  L 387.75 151.4  L 481.2 214.42  L 534.6 171.95  L 588 214.42  L 588 261  L 321 261  " fill-rule="nonzero" fill="#169bd5" stroke="none" />
  </g>
</svg>